ffmpeg version 3.4.8-0ubuntu0.2 Copyright (c) 2000-2020 the FFmpeg developers
  built with gcc 7 (Ubuntu 7.5.0-3ubuntu1~18.04)
  configuration: --prefix=/usr --extra-version=0ubuntu0.2 --toolchain=hardened --libdir=/usr/lib/x86_64-linux-gnu --incdir=/usr/include/x86_64-linux-gnu --enable-gpl --disable-stripping --enable-avresample --enable-avisynth --enable-gnutls --enable-ladspa --enable-libass --enable-libbluray --enable-libbs2b --enable-libcaca --enable-libcdio --enable-libflite --enable-libfontconfig --enable-libfreetype --enable-libfribidi --enable-libgme --enable-libgsm --enable-libmp3lame --enable-libmysofa --enable-libopenjpeg --enable-libopenmpt --enable-libopus --enable-libpulse --enable-librubberband --enable-librsvg --enable-libshine --enable-libsnappy --enable-libsoxr --enable-libspeex --enable-libssh --enable-libtheora --enable-libtwolame --enable-libvorbis --enable-libvpx --enable-libwavpack --enable-libwebp --enable-libx265 --enable-libxml2 --enable-libxvid --enable-libzmq --enable-libzvbi --enable-omx --enable-openal --enable-opengl --enable-sdl2 --enable-libdc1394 --enable-libdrm --enable-libiec61883 --enable-chromaprint --enable-frei0r --enable-libopencv --enable-libx264 --enable-shared
  libavutil      55. 78.100 / 55. 78.100
  libavcodec     57.107.100 / 57.107.100
  libavformat    57. 83.100 / 57. 83.100
  libavdevice    57. 10.100 / 57. 10.100
  libavfilter     6.107.100 /  6.107.100
  libavresample   3.  7.  0 /  3.  7.  0
  libswscale      4.  8.100 /  4.  8.100
  libswresample   2.  9.100 /  2.  9.100
  libpostproc    54.  7.100 / 54.  7.100
[rawvideo @ 0x55e84eea1a20] Estimating duration from bitrate, this may be inaccurate
Input #0, rawvideo, from '../../SVC-Encoder-20220109T061506Z-001/SVC-Encoder/Dataset/RollerCoaster/ERP_8x8/tile_yuv/Tile_1_480x240.yuv':
  Duration: 00:00:10.00, start: 0.000000, bitrate: 41472 kb/s
    Stream #0:0: Video: rawvideo (I420 / 0x30323449), yuv420p, 480x240, 41472 kb/s, 30 tbr, 30 tbn, 30 tbc
Stream mapping:
  Stream #0:0 -> #0:0 (rawvideo (native) -> h264 (libx264))
Press [q] to stop, [?] for help
[libx264 @ 0x55e84eeaec60] using cpu capabilities: MMX2 SSE2Fast LZCNT SSSE3 SSE4.2 AVX
[libx264 @ 0x55e84eeaec60] profile High, level 2.1
Output #0, rawvideo, to 'RollerCoaster_Tile_1_480x240_x264_QP_32.h264':
  Metadata:
    encoder         : Lavf57.83.100
    Stream #0:0: Video: h264 (libx264), yuv420p, 480x240, q=-1--1, 30 fps, 30 tbn, 30 tbc
    Metadata:
      encoder         : Lavc57.107.100 libx264
    Side data:
      cpb: bitrate max/min/avg: 0/0/0 buffer size: 0 vbv_delay: -1
frame=  300 fps=0.0 q=38.0 LPSNR=Y:inf U:inf V:inf *:inf size=       6kB time=00:00:09.93 bitrate=   5.0kbits/s speed=39.3x    
video:6kB audio:0kB subtitle:0kB other streams:0kB global headers:0kB muxing overhead: 0.000000%
[libx264 @ 0x55e84eeaec60] frame I:2     Avg QP:30.24  size:   597  PSNR Mean Y:50.82 U:50.05 V:51.90 Avg:50.83 Global:50.68
[libx264 @ 0x55e84eeaec60] frame P:76    Avg QP:33.73  size:    24  PSNR Mean Y:49.90 U:49.05 V:51.30 Avg:49.93 Global:49.80
[libx264 @ 0x55e84eeaec60] frame B:222   Avg QP:37.63  size:    14  PSNR Mean Y:49.87 U:49.02 V:51.30 Avg:49.90 Global:49.78
[libx264 @ 0x55e84eeaec60] consecutive B-frames:  1.3%  0.0%  0.0% 98.7%
[libx264 @ 0x55e84eeaec60] mb I  I16..4: 38.1% 61.9%  0.0%
[libx264 @ 0x55e84eeaec60] mb P  I16..4:  0.2%  0.3%  0.0%  P16..4:  0.2%  0.0%  0.0%  0.0%  0.0%    skip:99.3%
[libx264 @ 0x55e84eeaec60] mb B  I16..4:  0.0%  0.0%  0.0%  B16..8:  0.0%  0.0%  0.0%  direct: 0.0%  skip:100.0%
[libx264 @ 0x55e84eeaec60] 8x8 transform intra:61.0% inter:100.0%
[libx264 @ 0x55e84eeaec60] coded y,uvDC,uvAC intra: 0.3% 3.7% 0.0% inter: 0.0% 0.0% 0.0%
[libx264 @ 0x55e84eeaec60] i16 v,h,dc,p: 21% 75%  3%  1%
[libx264 @ 0x55e84eeaec60] i8 v,h,dc,ddl,ddr,vr,hd,vl,hu:  0%  0% 100%  0%  0%  0%  0%  0%  0%
[libx264 @ 0x55e84eeaec60] i8c dc,h,v,p: 94%  4%  2%  0%
[libx264 @ 0x55e84eeaec60] Weighted P-Frames: Y:0.0% UV:0.0%
[libx264 @ 0x55e84eeaec60] ref P L0: 80.5% 13.3%  6.2%
[libx264 @ 0x55e84eeaec60] PSNR Mean Y:49.879 U:49.031 V:51.305 Avg:49.915 Global:49.788 kb/s:4.98
